<mxfile host="app.diagrams.net" modified="2023-12-24T11:34:37.394Z" agent="Mozilla/5.0 (X11; Linux x86_64) AppleWebKit/537.36 (KHTML, like Gecko) Chrome/118.0.0.0 Safari/537.36" etag="O5pOXtKLlvnjhbQmzSv1" version="22.1.11" type="device">
  <diagram name="Pagina-1" id="3gEME28Wei9T5AP7KabL">
    <mxGraphModel dx="1223" dy="1942" grid="1" gridSize="10" guides="1" tooltips="1" connect="1" arrows="1" fold="1" page="1" pageScale="1" pageWidth="827" pageHeight="1169" math="0" shadow="0">
      <root>
        <mxCell id="0" />
        <mxCell id="1" parent="0" />
        <mxCell id="gu6TchWvHTXJe5LM5Ely-1" value="Component&lt;br&gt;&amp;lt;&amp;lt;abstract&amp;gt;&amp;gt;" style="swimlane;fontStyle=1;align=center;verticalAlign=top;childLayout=stackLayout;horizontal=1;startSize=40;horizontalStack=0;resizeParent=1;resizeParentMax=0;resizeLast=0;collapsible=1;marginBottom=0;whiteSpace=wrap;html=1;" vertex="1" parent="1">
          <mxGeometry x="40" y="-40" width="260" height="134" as="geometry" />
        </mxCell>
        <mxCell id="gu6TchWvHTXJe5LM5Ely-3" value="" style="line;strokeWidth=1;fillColor=none;align=left;verticalAlign=middle;spacingTop=-1;spacingLeft=3;spacingRight=3;rotatable=0;labelPosition=right;points=[];portConstraint=eastwest;strokeColor=inherit;" vertex="1" parent="gu6TchWvHTXJe5LM5Ely-1">
          <mxGeometry y="40" width="260" height="8" as="geometry" />
        </mxCell>
        <mxCell id="gu6TchWvHTXJe5LM5Ely-4" value="+ add (Component component) : boolean&lt;br&gt;+ remove (Component component) : boolean&lt;br&gt;+ getChild (int index) : Component&lt;br&gt;+ &lt;i&gt;getDescription&lt;/i&gt; () : String" style="text;strokeColor=none;fillColor=none;align=left;verticalAlign=top;spacingLeft=4;spacingRight=4;overflow=hidden;rotatable=0;points=[[0,0.5],[1,0.5]];portConstraint=eastwest;whiteSpace=wrap;html=1;" vertex="1" parent="gu6TchWvHTXJe5LM5Ely-1">
          <mxGeometry y="48" width="260" height="86" as="geometry" />
        </mxCell>
        <mxCell id="gu6TchWvHTXJe5LM5Ely-6" value="SingleComponent&lt;br&gt;&amp;lt;&amp;lt;abstract&amp;gt;&amp;gt;" style="swimlane;fontStyle=1;align=center;verticalAlign=top;childLayout=stackLayout;horizontal=1;startSize=50;horizontalStack=0;resizeParent=1;resizeParentMax=0;resizeLast=0;collapsible=1;marginBottom=0;whiteSpace=wrap;html=1;" vertex="1" parent="1">
          <mxGeometry x="90" y="150" width="160" height="84" as="geometry" />
        </mxCell>
        <mxCell id="gu6TchWvHTXJe5LM5Ely-8" value="" style="line;strokeWidth=1;fillColor=none;align=left;verticalAlign=middle;spacingTop=-1;spacingLeft=3;spacingRight=3;rotatable=0;labelPosition=right;points=[];portConstraint=eastwest;strokeColor=inherit;" vertex="1" parent="gu6TchWvHTXJe5LM5Ely-6">
          <mxGeometry y="50" width="160" height="8" as="geometry" />
        </mxCell>
        <mxCell id="gu6TchWvHTXJe5LM5Ely-9" value="+ getDescription () : String" style="text;strokeColor=none;fillColor=none;align=left;verticalAlign=top;spacingLeft=4;spacingRight=4;overflow=hidden;rotatable=0;points=[[0,0.5],[1,0.5]];portConstraint=eastwest;whiteSpace=wrap;html=1;" vertex="1" parent="gu6TchWvHTXJe5LM5Ely-6">
          <mxGeometry y="58" width="160" height="26" as="geometry" />
        </mxCell>
        <mxCell id="gu6TchWvHTXJe5LM5Ely-10" value="Compound&lt;br&gt;&amp;lt;&amp;lt;abstract&amp;gt;&amp;gt;" style="swimlane;fontStyle=1;align=center;verticalAlign=top;childLayout=stackLayout;horizontal=1;startSize=40;horizontalStack=0;resizeParent=1;resizeParentMax=0;resizeLast=0;collapsible=1;marginBottom=0;whiteSpace=wrap;html=1;" vertex="1" parent="1">
          <mxGeometry x="440" y="-40" width="260" height="192" as="geometry" />
        </mxCell>
        <mxCell id="gu6TchWvHTXJe5LM5Ely-12" value="" style="line;strokeWidth=1;fillColor=none;align=left;verticalAlign=middle;spacingTop=-1;spacingLeft=3;spacingRight=3;rotatable=0;labelPosition=right;points=[];portConstraint=eastwest;strokeColor=inherit;" vertex="1" parent="gu6TchWvHTXJe5LM5Ely-10">
          <mxGeometry y="40" width="260" height="20" as="geometry" />
        </mxCell>
        <mxCell id="gu6TchWvHTXJe5LM5Ely-38" value="- type : NodeType&lt;br&gt;- child : Collection" style="text;strokeColor=none;fillColor=none;align=left;verticalAlign=top;spacingLeft=4;spacingRight=4;overflow=hidden;rotatable=0;points=[[0,0.5],[1,0.5]];portConstraint=eastwest;whiteSpace=wrap;html=1;" vertex="1" parent="gu6TchWvHTXJe5LM5Ely-10">
          <mxGeometry y="60" width="260" height="50" as="geometry" />
        </mxCell>
        <mxCell id="gu6TchWvHTXJe5LM5Ely-13" value="+ add (Component component) : boolean&lt;br style=&quot;border-color: var(--border-color);&quot;&gt;+ remove (Component component) : boolean&lt;br style=&quot;border-color: var(--border-color);&quot;&gt;+ getChild (int index) : Component&lt;br style=&quot;border-color: var(--border-color);&quot;&gt;+&amp;nbsp;&lt;span style=&quot;border-color: var(--border-color);&quot;&gt;getDescription&lt;/span&gt;&amp;nbsp;() : String" style="text;strokeColor=none;fillColor=none;align=left;verticalAlign=top;spacingLeft=4;spacingRight=4;overflow=hidden;rotatable=0;points=[[0,0.5],[1,0.5]];portConstraint=eastwest;whiteSpace=wrap;html=1;" vertex="1" parent="gu6TchWvHTXJe5LM5Ely-10">
          <mxGeometry y="110" width="260" height="82" as="geometry" />
        </mxCell>
        <mxCell id="gu6TchWvHTXJe5LM5Ely-14" value="Leaf" style="swimlane;fontStyle=1;align=center;verticalAlign=top;childLayout=stackLayout;horizontal=1;startSize=30;horizontalStack=0;resizeParent=1;resizeParentMax=0;resizeLast=0;collapsible=1;marginBottom=0;whiteSpace=wrap;html=1;" vertex="1" parent="1">
          <mxGeometry x="90" y="290" width="160" height="38" as="geometry" />
        </mxCell>
        <mxCell id="gu6TchWvHTXJe5LM5Ely-15" value="" style="line;strokeWidth=1;fillColor=none;align=left;verticalAlign=middle;spacingTop=-1;spacingLeft=3;spacingRight=3;rotatable=0;labelPosition=right;points=[];portConstraint=eastwest;strokeColor=inherit;" vertex="1" parent="gu6TchWvHTXJe5LM5Ely-14">
          <mxGeometry y="30" width="160" height="8" as="geometry" />
        </mxCell>
        <mxCell id="gu6TchWvHTXJe5LM5Ely-17" value="" style="endArrow=diamondThin;endFill=0;endSize=24;html=1;rounded=0;entryX=0.5;entryY=0;entryDx=0;entryDy=0;exitX=0.5;exitY=0;exitDx=0;exitDy=0;" edge="1" parent="1" source="gu6TchWvHTXJe5LM5Ely-1" target="gu6TchWvHTXJe5LM5Ely-10">
          <mxGeometry width="160" relative="1" as="geometry">
            <mxPoint x="370" y="190" as="sourcePoint" />
            <mxPoint x="530" y="190" as="targetPoint" />
            <Array as="points">
              <mxPoint x="170" y="-160" />
              <mxPoint x="360" y="-160" />
              <mxPoint x="570" y="-160" />
            </Array>
          </mxGeometry>
        </mxCell>
        <mxCell id="gu6TchWvHTXJe5LM5Ely-18" value="Extends" style="endArrow=block;endSize=16;endFill=0;html=1;rounded=0;entryX=1;entryY=0.5;entryDx=0;entryDy=0;exitX=-0.016;exitY=0.396;exitDx=0;exitDy=0;exitPerimeter=0;" edge="1" parent="1" source="gu6TchWvHTXJe5LM5Ely-13" target="gu6TchWvHTXJe5LM5Ely-4">
          <mxGeometry width="160" relative="1" as="geometry">
            <mxPoint x="340" y="130" as="sourcePoint" />
            <mxPoint x="500" y="130" as="targetPoint" />
          </mxGeometry>
        </mxCell>
        <mxCell id="gu6TchWvHTXJe5LM5Ely-19" value="Extends" style="endArrow=block;endSize=16;endFill=0;html=1;rounded=0;entryX=0.5;entryY=1;entryDx=0;entryDy=0;exitX=0.5;exitY=0;exitDx=0;exitDy=0;" edge="1" parent="1" source="gu6TchWvHTXJe5LM5Ely-6" target="gu6TchWvHTXJe5LM5Ely-1">
          <mxGeometry width="160" relative="1" as="geometry">
            <mxPoint x="446" y="50" as="sourcePoint" />
            <mxPoint x="310" y="51" as="targetPoint" />
          </mxGeometry>
        </mxCell>
        <mxCell id="gu6TchWvHTXJe5LM5Ely-20" value="Extends" style="endArrow=block;endSize=16;endFill=0;html=1;rounded=0;entryX=0.501;entryY=0.998;entryDx=0;entryDy=0;exitX=0.5;exitY=0;exitDx=0;exitDy=0;entryPerimeter=0;" edge="1" parent="1" source="gu6TchWvHTXJe5LM5Ely-14" target="gu6TchWvHTXJe5LM5Ely-9">
          <mxGeometry width="160" relative="1" as="geometry">
            <mxPoint x="350" y="276" as="sourcePoint" />
            <mxPoint x="350" y="210" as="targetPoint" />
          </mxGeometry>
        </mxCell>
        <mxCell id="gu6TchWvHTXJe5LM5Ely-22" value="Distretti" style="swimlane;fontStyle=1;align=center;verticalAlign=top;childLayout=stackLayout;horizontal=1;startSize=30;horizontalStack=0;resizeParent=1;resizeParentMax=0;resizeLast=0;collapsible=1;marginBottom=0;whiteSpace=wrap;html=1;" vertex="1" parent="1">
          <mxGeometry x="360" y="200" width="160" height="38" as="geometry" />
        </mxCell>
        <mxCell id="gu6TchWvHTXJe5LM5Ely-23" value="" style="line;strokeWidth=1;fillColor=none;align=left;verticalAlign=middle;spacingTop=-1;spacingLeft=3;spacingRight=3;rotatable=0;labelPosition=right;points=[];portConstraint=eastwest;strokeColor=inherit;" vertex="1" parent="gu6TchWvHTXJe5LM5Ely-22">
          <mxGeometry y="30" width="160" height="8" as="geometry" />
        </mxCell>
        <mxCell id="gu6TchWvHTXJe5LM5Ely-24" value="extends" style="endArrow=block;endSize=16;endFill=0;html=1;rounded=0;entryX=0.501;entryY=0.999;entryDx=0;entryDy=0;exitX=0.5;exitY=0;exitDx=0;exitDy=0;entryPerimeter=0;" edge="1" parent="1" source="gu6TchWvHTXJe5LM5Ely-22" target="gu6TchWvHTXJe5LM5Ely-13">
          <mxGeometry width="160" relative="1" as="geometry">
            <mxPoint x="430" y="166" as="sourcePoint" />
            <mxPoint x="430" y="110" as="targetPoint" />
          </mxGeometry>
        </mxCell>
        <mxCell id="gu6TchWvHTXJe5LM5Ely-25" value="Regioni" style="swimlane;fontStyle=1;align=center;verticalAlign=top;childLayout=stackLayout;horizontal=1;startSize=30;horizontalStack=0;resizeParent=1;resizeParentMax=0;resizeLast=0;collapsible=1;marginBottom=0;whiteSpace=wrap;html=1;" vertex="1" parent="1">
          <mxGeometry x="490" y="328" width="160" height="38" as="geometry" />
        </mxCell>
        <mxCell id="gu6TchWvHTXJe5LM5Ely-26" value="" style="line;strokeWidth=1;fillColor=none;align=left;verticalAlign=middle;spacingTop=-1;spacingLeft=3;spacingRight=3;rotatable=0;labelPosition=right;points=[];portConstraint=eastwest;strokeColor=inherit;" vertex="1" parent="gu6TchWvHTXJe5LM5Ely-25">
          <mxGeometry y="30" width="160" height="8" as="geometry" />
        </mxCell>
        <mxCell id="gu6TchWvHTXJe5LM5Ely-27" value="extends" style="endArrow=block;endSize=16;endFill=0;html=1;rounded=0;exitX=0.5;exitY=0;exitDx=0;exitDy=0;entryX=0.5;entryY=1;entryDx=0;entryDy=0;entryPerimeter=0;" edge="1" parent="1" source="gu6TchWvHTXJe5LM5Ely-25" target="gu6TchWvHTXJe5LM5Ely-13">
          <mxGeometry width="160" relative="1" as="geometry">
            <mxPoint x="500" y="346" as="sourcePoint" />
            <mxPoint x="570" y="90" as="targetPoint" />
          </mxGeometry>
        </mxCell>
        <mxCell id="gu6TchWvHTXJe5LM5Ely-28" value="Stati" style="swimlane;fontStyle=1;align=center;verticalAlign=top;childLayout=stackLayout;horizontal=1;startSize=30;horizontalStack=0;resizeParent=1;resizeParentMax=0;resizeLast=0;collapsible=1;marginBottom=0;whiteSpace=wrap;html=1;" vertex="1" parent="1">
          <mxGeometry x="620" y="196" width="160" height="38" as="geometry" />
        </mxCell>
        <mxCell id="gu6TchWvHTXJe5LM5Ely-29" value="" style="line;strokeWidth=1;fillColor=none;align=left;verticalAlign=middle;spacingTop=-1;spacingLeft=3;spacingRight=3;rotatable=0;labelPosition=right;points=[];portConstraint=eastwest;strokeColor=inherit;" vertex="1" parent="gu6TchWvHTXJe5LM5Ely-28">
          <mxGeometry y="30" width="160" height="8" as="geometry" />
        </mxCell>
        <mxCell id="gu6TchWvHTXJe5LM5Ely-30" value="extends" style="endArrow=block;endSize=16;endFill=0;html=1;rounded=0;exitX=0.5;exitY=0;exitDx=0;exitDy=0;entryX=0.507;entryY=1.002;entryDx=0;entryDy=0;entryPerimeter=0;" edge="1" parent="1" source="gu6TchWvHTXJe5LM5Ely-28" target="gu6TchWvHTXJe5LM5Ely-13">
          <mxGeometry width="160" relative="1" as="geometry">
            <mxPoint x="450" y="186" as="sourcePoint" />
            <mxPoint x="570" y="90" as="targetPoint" />
          </mxGeometry>
        </mxCell>
        <mxCell id="gu6TchWvHTXJe5LM5Ely-31" value="" style="endArrow=open;html=1;endSize=12;startArrow=diamondThin;startSize=14;startFill=0;edgeStyle=orthogonalEdgeStyle;rounded=0;exitX=0.5;exitY=1;exitDx=0;exitDy=0;entryX=1;entryY=0.5;entryDx=0;entryDy=0;" edge="1" parent="1" source="gu6TchWvHTXJe5LM5Ely-28" target="gu6TchWvHTXJe5LM5Ely-25">
          <mxGeometry relative="1" as="geometry">
            <mxPoint x="380" y="280" as="sourcePoint" />
            <mxPoint x="540" y="280" as="targetPoint" />
          </mxGeometry>
        </mxCell>
        <mxCell id="gu6TchWvHTXJe5LM5Ely-32" value="0..n" style="edgeLabel;resizable=0;html=1;align=left;verticalAlign=top;" connectable="0" vertex="1" parent="gu6TchWvHTXJe5LM5Ely-31">
          <mxGeometry x="-1" relative="1" as="geometry">
            <mxPoint x="10" y="6" as="offset" />
          </mxGeometry>
        </mxCell>
        <mxCell id="gu6TchWvHTXJe5LM5Ely-33" value="1" style="edgeLabel;resizable=0;html=1;align=right;verticalAlign=top;" connectable="0" vertex="1" parent="gu6TchWvHTXJe5LM5Ely-31">
          <mxGeometry x="1" relative="1" as="geometry">
            <mxPoint x="30" as="offset" />
          </mxGeometry>
        </mxCell>
        <mxCell id="gu6TchWvHTXJe5LM5Ely-34" value="" style="endArrow=open;html=1;endSize=12;startArrow=diamondThin;startSize=14;startFill=0;edgeStyle=orthogonalEdgeStyle;rounded=0;exitX=0;exitY=0.5;exitDx=0;exitDy=0;entryX=0.5;entryY=1;entryDx=0;entryDy=0;" edge="1" parent="1" source="gu6TchWvHTXJe5LM5Ely-25" target="gu6TchWvHTXJe5LM5Ely-22">
          <mxGeometry relative="1" as="geometry">
            <mxPoint x="710" y="244" as="sourcePoint" />
            <mxPoint x="660" y="357" as="targetPoint" />
          </mxGeometry>
        </mxCell>
        <mxCell id="gu6TchWvHTXJe5LM5Ely-35" value="0..n" style="edgeLabel;resizable=0;html=1;align=left;verticalAlign=top;" connectable="0" vertex="1" parent="gu6TchWvHTXJe5LM5Ely-34">
          <mxGeometry x="-1" relative="1" as="geometry">
            <mxPoint x="-30" as="offset" />
          </mxGeometry>
        </mxCell>
        <mxCell id="gu6TchWvHTXJe5LM5Ely-36" value="1" style="edgeLabel;resizable=0;html=1;align=right;verticalAlign=top;" connectable="0" vertex="1" parent="gu6TchWvHTXJe5LM5Ely-34">
          <mxGeometry x="1" relative="1" as="geometry">
            <mxPoint x="-10" y="12" as="offset" />
          </mxGeometry>
        </mxCell>
      </root>
    </mxGraphModel>
  </diagram>
</mxfile>
